<?xml version="1.0" standalone="no"?>
<!DOCTYPE svg PUBLIC "-//W3C//DTD SVG 20010904//EN"
 "http://www.w3.org/TR/2001/REC-SVG-20010904/DTD/svg10.dtd">
<svg version="1.0" xmlns="http://www.w3.org/2000/svg"
 width="144.000000pt" height="144.000000pt" viewBox="0 0 144.000000 144.000000"
 preserveAspectRatio="xMidYMid meet">
<metadata>
Created by potrace 1.11, written by Peter Selinger 2001-2013
</metadata>
<g transform="translate(0.000000,144.000000) scale(0.100000,-0.100000)"
fill="#000000" stroke="none">
<path d="M695 1317 c-3 -7 -5 -52 -3 -98 3 -76 5 -84 23 -84 19 0 20 7 20 95
0 82 -2 95 -18 98 -9 2 -19 -3 -22 -11z"/>
<path d="M333 1215 c-6 -17 32 -99 68 -147 19 -24 49 -19 49 9 0 28 -73 147
-93 151 -9 2 -20 -4 -24 -13z"/>
<path d="M1020 1160 c-43 -74 -48 -105 -15 -105 22 0 107 139 98 161 -13 33
-43 13 -83 -56z"/>
<path d="M613 1035 c-208 -45 -363 -237 -363 -446 0 -87 26 -181 49 -177 11 3
15 13 14 33 -10 126 -5 213 15 267 86 239 350 345 576 232 27 -13 66 -38 88
-55 37 -30 68 -33 68 -8 0 20 -83 89 -145 119 -56 28 -158 51 -215 49 -14 0
-53 -7 -87 -14z"/>
<path d="M70 955 c-17 -21 -2 -37 77 -81 65 -37 93 -39 93 -6 0 12 -24 32 -74
60 -40 23 -76 42 -79 42 -2 0 -10 -7 -17 -15z"/>
<path d="M1265 927 c-69 -42 -91 -72 -61 -83 19 -7 166 72 166 90 0 12 -20 36
-29 36 -4 0 -37 -20 -76 -43z"/>
<path d="M995 820 c-88 -13 -170 -62 -212 -126 -11 -18 -13 -28 -5 -36 7 -7
20 -1 44 21 18 17 58 44 88 59 46 23 68 27 135 27 92 0 148 -22 209 -81 93
-91 119 -232 63 -346 -35 -71 -102 -131 -170 -154 -47 -16 -96 -17 -467 -15
-393 2 -417 3 -457 22 -122 59 -171 207 -109 332 15 31 43 70 62 87 22 19 34
37 30 45 -9 25 -31 17 -81 -27 -64 -57 -95 -123 -95 -209 0 -96 23 -154 89
-220 92 -91 84 -90 592 -87 l434 3 56 28 c142 69 229 238 198 385 -32 156
-140 263 -294 291 -32 6 -59 10 -59 10 -1 -1 -23 -5 -51 -9z"/>
</g>
</svg>
